- 
http://www.Speed.Cd
 
http://www.Speed.Cd       the fast  and The Hottest Private Tracker on the net

Please Seed back to make the speed Faster!!
 ............ NFO .............
-[IMG]http://lookpic.com/O/i2/313/lSYKShav.jpeg[/IMG]

[IMG]http://lookpic.com/O/i2/1731/tzUVhx0x.jpeg[/IMG]

[IMG]http://lookpic.com/O/i2/581/Oqipqrhp.jpeg[/IMG]
 
http://www.imdb.com/title/tt1623205/

Source: OWN
Audio: MiNiSTRY...THX

Format                           : AVI
Format/Info                      : Audio Video Interleave
Format profile                   : OpenDML
File size                        : 2.72 GiB
Duration                         : 2h 4mn
Overall bit rate                 : 3 135 Kbps
Writing library                  : VirtualDub build 35390/release

Video
ID                               : 0
Format                           : MPEG-4 Visual
Format profile                   : Advanced Simple@L5
Format settings, BVOP            : Yes
Format settings, QPel            : No
Format settings, GMC             : No warppoints
Format settings, Matrix          : Default (H.263)
Muxing mode                      : Packed bitstream
Codec ID                         : XVID
Codec ID/Hint                    : XviD
Duration                         : 2h 4mn
Bit rate                         : 2 996 Kbps
Width                            : 1 280 pixels
Height                           : 528 pixels
Display aspect ratio             : 2.40:1
Frame rate                       : 25.000 fps
Color space                      : YUV
Chroma subsampling               : 4:2:0
Bit depth                        : 8 bits
Scan type                        : Progressive
Bits/(Pixel*Frame)               : 0.177
Stream size                      : 2.60 GiB (96%)
Writing library                  : XviD 1.2.1 (UTC 2008-12-04)

Audio
ID                               : 1
Format                           : MPEG Audio
Format version                   : Version 1
Format profile                   : Layer 3
Mode                             : Joint stereo
Mode extension                   : MS Stereo
Codec ID                         : 55
Codec ID/Hint                    : MP3
Duration                         : 2h 4mn
Bit rate mode                    : Constant
Bit rate                         : 128 Kbps
Channel(s)                       : 2 channels
Sampling rate                    : 48.0 KHz
Stream size                      : 114 MiB (4%)
Alignment                        : Split accross interleaves
Interleave, duration             : 40 ms (1.00 video frame)
Interleave, preload duration     : 500 ms
Writing library                  : LAME3.98.2

Note:
We had the source file for a little while but waited for line. We used MiNiSTRY audio but it had 4 cuts in it nothing big or noticeable. We took our time syncing it up so it should be right on. We also did 3 version, 720p, 720x304, and 640x270. The video is the full video uncropped like the russian source on the top and bottom. Did all kinds of filters without over doing it, but im sure there someone out there that will complain again. So enjoy 

+1Rep Please If you enjoy this release :)

[IMG]http://lookpic.com/O/i2/424/ZGdsf44M.jpeg[/IMG]

[IMG]http://lookpic.com/O/i2/722/Ax28us41.png[/IMG]
[IMG]http://lookpic.com/O/i2/40/XBbIKWbB.png[/IMG]
[IMG]http://lookpic.com/O/i2/1851/JOxBv1R0.png[/IMG]
[IMG]http://lookpic.com/O/i2/172/CC2mA2ng.png[/IMG]
[IMG]http://lookpic.com/O/i2/1959/7wyRsqht.png[/IMG]